<svg xmlns="http://www.w3.org/2000/svg" viewBox="0 0 1024 1024"><path d="M534.3,14.38c12.83,97,23.8,197,32.53,294.5,3.09,36.87,10,73.47,11.59,110.46,1.37,37.17-1.23,74.06-6,111.12-3.5,25.06-8,50.25-15.71,74.53l-6.1.23c-9.54-23.62-15.92-48.41-21.3-73.12-10.07-48.65-16.47-97.72-14.22-147.33,1.9-35.61,3.38-75.16,3.56-111,1.11-60.34,3.24-124.88,5.87-185,1-21.24,2.4-53,3.71-74.07l6.09-.24Z"/><path d="M8.6,391.65C101.73,417.83,196.88,446.9,288.87,477c34.7,11.59,70.67,19.56,104.88,32.59,34.3,13.29,66.77,30.12,98.53,49,21.38,13,42.49,27,61.47,43.6l-2.2,5.69c-25.2-.47-50.24-4.32-74.81-9.05-48.15-9.79-95.24-23.12-139.4-44.61-31.59-15.68-66.92-32.52-99.42-46.73C183.56,482.93,125.8,455.71,72.2,429.74,53.29,420.54,25,406.8,6.4,397.35l2.2-5.7Z"/><path d="M1011.77,398.27c-71.26,42.83-145.67,85-219,124.2-27.8,14.65-53.87,32.73-82.38,46-28.78,13.2-58.76,22.57-89.75,30-21.15,4.82-42.83,8.75-64.72,9.38l-2.55-5.55c3.78-4.28,7.73-8.2,11.74-12a389,389,0,0,1,37.51-31c25.82-18.68,52.45-35.34,81.2-48.59,19.07-8.72,39.16-15.07,59-21.85,27.51-9.41,60.88-23.05,88.28-33.2,38.23-14.16,80-29.34,118.45-42.65,17.09-5.92,42.61-14.75,59.71-20.29l2.54,5.54Z"/><path d="M119.06,955.57c53.22-56,109.55-112.1,165.72-165.24,21.36-19.92,40.15-42.7,62.54-61.5,22.69-18.78,47.5-34.15,73.79-47.93,18.07-9.19,36.89-17.63,56.67-22.95l3.89,4.69c-2.26,4.88-4.78,9.45-7.38,13.92a342.56,342.56,0,0,1-25.63,37.54c-18.4,23.29-38.09,44.84-60.73,63.67-15,12.41-31.64,22.79-47.9,33.52-22.56,14.89-49.3,35.06-71.56,50.63-31,21.73-65.09,45.19-96.52,66.15-14,9.32-34.9,23.23-49,32.19l-3.89-4.69Z"/><path d="M798.55,940c-48-49.4-95.76-101.8-140.76-154-11.3-13.2-23.71-25.52-35.56-38.23a236.48,236.48,0,0,1-31.15-41.51c-15.67-26.58-29.07-55.46-36.85-85.72a140.87,140.87,0,0,1-2.9-14l4.9-3.63c16.58,8.16,31.65,19.12,45.78,30.66,27,22.64,51.26,47.7,68.73,78.23,4.4,7.51,8.59,15.17,12.89,22.75,7.38,13.21,19,31.44,27.23,44.41,12.32,19.65,28.77,46.84,40.58,66.8,17.49,29.61,35.54,60.51,52,90.64l-4.9,3.63Z"/><path d="M312.5,465.5c26.48-65,100.28-123,166.65-142.67,11.11-3.22,22.14-5.82,34-6.63-4.19,11.15-9.85,21-16.13,30.69C459.14,404.78,382.36,458.8,312.5,465.5Z"/><path d="M720.34,790.29C705.45,717.48,734.1,620.82,778,561.89c7.39-9.8,15.08-19.07,24.55-27.39,2.86,12.27,3.71,24.29,4,36.56,1.32,73.42-31.64,168.68-86.17,219.23Z"/><path d="M576.3,315.37c72,7.17,152.51,62.42,193.21,121.17,6.75,9.87,12.88,19.84,17.56,31.2-12.25-.88-23.65-3.58-35.13-6.89-68.52-20.23-146.23-79.31-175.64-145.48Z"/><path d="M384.5,784.5c72.51-29.35,179.09-20.56,250,10.46,11.81,5.25,23.17,10.91,34,18.54-12.12,5.29-24.4,8.54-37,11.29-75.71,16-181.86,3.13-247-40.29Z"/><path d="M336.5,728.5c-39.56-22-57-72.59-40.1-114.28a83.34,83.34,0,0,1,11-20,83.86,83.86,0,0,1,18.29,13.6c32.61,31,37.7,84.26,10.79,120.64Z"/><path d="M432.42,116.3c-2.89,19.75-9.08,38.68-17,56.91C363,292.43,231.28,372.88,101.31,363.92a195.14,195.14,0,0,1-29.48-4.39c15.21-7.46,36.93-17,52.39-24.23C173.12,312.82,221.77,287.51,266,258c36.59-24.37,71.76-52.64,104.66-82.79,21.24-19.26,40.19-38.62,61.77-58.88Z"/><path d="M980.33,387.1c-9.93.78-22.93,1.76-32.66,2.2-87.06,4.62-163.77-27.92-230.8-81.83C661.2,263.31,613.33,207.63,584,142.54a243.17,243.17,0,0,1-11.43-30.94C635.73,165.31,699,220.14,766,268.36c32.15,23.58,65.28,45.93,100.67,64.55,25.61,13.84,56.89,27.38,84.22,39.27,10,4.5,20.15,8.95,29.43,14.92Z"/><path d="M208.37,918.56c21.74-9,44.4-15.35,67.33-20.41C407.28,870,555.86,887.48,680.11,938c37.19,15.2,73.14,33.69,106.29,56.45A335.15,335.15,0,0,1,818.31,1019c-45.45-10.24-88.73-21.26-133.72-31-68.39-15.32-137.4-28.57-206.67-39.07C388.3,934.9,299,927,208.37,918.56Z"/><path d="M36.2,430.13C88.71,469.72,125,527.46,149.4,587.8c31.65,81.17,42.13,171.93,23,257.35-4.94,21.27-11.47,42.17-21.4,61.73-1.69-10.88-3-21.49-4.4-32-3.61-28.23-7.62-56.48-12-84.54C127,743.26,117.86,696.21,106.17,650c-18.24-75.16-43.79-146.67-70-219.86Z"/><path d="M869.2,1001.86c-16-47.38-20.91-97.76-20.89-147.51.21-49.65,6.92-99.1,17.71-147.49,16-72.09,38.9-142.87,73.05-208.6,8.69-16.51,18.19-32.8,29.2-47.95a137.5,137.5,0,0,1,12.06-14.55c-1.39,6.14-2.62,12.14-3.73,18.19-7.39,40.78-14.69,84.58-22.46,125.06C941,649.31,925.56,719.6,910.6,789.4c-15.09,70.13-27.15,141.9-41.4,212.46Z"/></svg>