<svg xmlns="http://www.w3.org/2000/svg" viewBox="0 0 2851 900"><path d="M1334.3,592.5q-17.61,50-48.68,74t-78.37,24q-63.26,0-85.53-50.25t-6.87-155.75Q1130.8,377,1169.3,326.75t101.75-50.25q41.25,0,63.25,23.75t30.25,60.25l-56.65,11q-3.86-21-14.58-33t-28.32-12q-26.4,0-43.18,16.75t-27.5,51.5q-10.72,34.75-20.07,89.75-13.76,81-4.4,119.75T1217.7,643q20.9,0,36.3-14.75T1281.5,585Z"/><path d="M1467.39,690.5q-53.36,0-73.15-38.25T1386,533.5q11.55-81.49,42.08-119.75t82.77-38.25q53.9,0,73.7,38.25t8.25,119.75q-11.55,80.5-42.07,118.75T1467.39,690.5Zm3.85-45q25.29,0,41.53-27.25t25-84.75q9.35-58,1.65-85.5t-33-27.5q-24.21,0-40.15,27.5T1441,533.5q-8.81,57.51-1.65,84.75T1471.24,645.5Z"/><path d="M1681.89,685.5h-50.05l65.45-420h53.35L1729.19,402q23.64-26.49,57.75-26.5,41.79,0,60.5,38.75t9.35,114.25q-6.06,47-21.18,83.75t-39,57.5q-23.93,20.75-55.82,20.75-36.85,0-52.8-30.5Zm89.65-265a44.75,44.75,0,0,0-32.18,13q-13.47,13-20.07,34.5l-19.8,123.5q-1.11,23.5,9.07,38.75t28.33,15.25q18.69,0,31.07-15.5t20.63-41a341.78,341.78,0,0,0,12.65-55.5q5.49-33.5,4.67-59t-8.8-39.75Q1789.13,420.5,1771.54,420.5Z"/><path d="M1935.45,685.5l-23.65-305h54.45l7.7,181q.54,17,1.37,34.25t1.93,34.25q5.49-17,11.27-34t11.83-34.5l61.6-181h53.35l9.35,181q1.09,17,1.92,34t1.38,34q6-17,11.82-34t11.28-34l61.6-181h55L2150,685.5h-63.8l-12.1-165q-.56-8-.83-18.25T2073,480.5q-2.2,8.5-4.4,16.25a138.57,138.57,0,0,1-4.4,13.25l-64.9,175.5Z"/><path d="M2476.65,603q-13.2,41.5-42.35,64.5t-68.75,23q-41.81,0-61.6-20.75T2280.57,613q-3.59-36,2.48-82,6.6-46,21.17-81t40.43-54.75q25.84-19.74,64.35-19.75,40.14,0,59.95,20.25T2492.32,454q3.57,38-4.67,91.5h-154a325.33,325.33,0,0,0-2.75,48.75q.54,22.75,9.35,37t30.25,14.25q39.6,0,57.2-49ZM2404.6,420.5q-23.66,0-39,21.5t-24.75,62.5h97.35a244.52,244.52,0,0,0,.55-43q-1.65-19-9.63-30T2404.6,420.5Z"/><path d="M2572.34,685.5h-50.05l65.45-420h53.35L2619.64,402q23.64-26.49,57.75-26.5,41.79,0,60.5,38.75t9.35,114.25q-6.06,47-21.17,83.75T2687,669.75q-23.92,20.75-55.83,20.75-36.86,0-52.8-30.5Zm89.65-265a44.73,44.73,0,0,0-32.17,13q-13.49,13-20.08,34.5l-19.8,123.5q-1.11,23.5,9.08,38.75t28.32,15.25q18.69,0,31.08-15.5T2679,589a341.78,341.78,0,0,0,12.65-55.5q5.49-33.5,4.68-59t-8.8-39.75Q2679.59,420.5,2662,420.5Z"/><path d="M538.76,66.22c6.87,54.25,12.73,110,18.1,164.45,3.22,35.63,6.44,74.31,11,109.68,5,45.92,1.86,92.32-6,137.84A268.36,268.36,0,0,1,555.42,506l-4.2.15C538.47,471,532.28,433.75,528.17,396.9c-4.44-36.6-.37-73.43,0-110.1l.32-27.53c1-63.85,2.91-129.14,6-192.89l4.2-.16Z"/><path d="M105.76,330.91c76.22,22.73,153.68,47.43,229.1,72.87,28.38,9.74,57.7,17,85.75,27.73,28.11,10.9,55,24.23,81.39,39,17.69,10.14,35.23,20.85,51.35,33.53L551.83,508c-20.44-1.47-40.63-5.35-60.54-9.76-29.48-6.8-58.35-15-86.47-25.9S350.28,447,322.73,435.12L295.25,423c-63.62-28.26-128.33-58-191-88.2l1.52-3.92Z"/><path d="M959.88,321.82c-48.12,27.41-98,54.47-146.9,80.58-32.1,16.8-67,34.79-98.39,52.73-41,22.48-85.62,37.56-131.22,48a275.34,275.34,0,0,1-28.44,4.82l-1.75-3.81c28-25.43,60.45-45.6,93.34-63.71,32.53-18.3,68.54-28.85,103-42.71l25.88-10.4c60.1-23.88,121.91-47.44,182.73-69.3l1.76,3.81Z"/><path d="M229.86,767.1C269.83,725.76,312,684.33,354,645c10.6-9.9,20.59-20.5,30.84-30.77a240.63,240.63,0,0,1,33.25-27.86c21.06-14.58,43.78-27.77,67.86-37.1,3.56-1.37,7.18-2.67,11-3.75l2.68,3.23c-1.76,3.54-3.71,6.85-5.71,10.1a328.79,328.79,0,0,1-65.11,74.38c-11.19,9.23-23.46,17.08-35.5,25.16-16.69,11.22-36.54,26.3-53,38-23,16.3-48.22,33.94-71.49,49.71-10.34,7-25.83,17.5-36.24,24.25l-2.69-3.23Z"/><path d="M735.81,755.29C700.46,718.17,665.22,679,632,639.9c-8.36-9.86-17.46-19.14-26.21-28.66a190.7,190.7,0,0,1-23.18-30.91c-13.45-22.66-25.37-47.25-30.83-73.33l3.37-2.51a170.67,170.67,0,0,1,25.56,17.13c17.89,14.34,34.21,30.45,47.86,48.68C640,586,648.38,603.66,659,619.89c20.62,32.06,41.55,66.35,60.81,99.2,5.62,9.62,14,24,19.41,33.7l-3.37,2.5Z"/><path d="M358.88,413.58C384.26,363,443.79,317,496.48,298a144.51,144.51,0,0,1,26.72-7.06,144.2,144.2,0,0,1-14.36,23.61c-33.24,45.07-94.27,89.07-150,99Z"/><path d="M677.44,643.92c-7.76-59,15.38-135.13,48.13-184.3a157.54,157.54,0,0,1,18.12-22.73,157.33,157.33,0,0,1,1.55,29c-1.86,59-27.21,134.46-67.8,178Z"/><path d="M570.2,290.31c53.36,7.42,111.76,47.95,143.36,90.9a132.16,132.16,0,0,1,13.57,22.55A131.76,131.76,0,0,1,701.46,398C650.79,381.42,594,338.68,570.2,290.31Z"/><path d="M415.76,638.2c64.72-20.34,161-10.79,222.63,17a137.11,137.11,0,0,1,14.21,7.35,136.28,136.28,0,0,1-15.41,4.3C571.28,681.53,475,671.3,415.76,638.2Z"/><path d="M394.84,611.83c-29.55-21.48-41.65-62.78-31.82-97.44A68.56,68.56,0,0,1,370,498a68.48,68.48,0,0,1,13.19,12c23.36,27.41,29.57,70,11.65,101.84Z"/><path d="M463.07,142.09c-9.68,51.09-41.52,96.25-81.64,128.51C334,308.73,272,330.52,211,325.58a154.09,154.09,0,0,1-16.37-2.39c3.35-1.64,6.7-3,10-4.51,40.78-17.46,81.22-35.72,118.83-59.06a573,573,0,0,0,71.94-52.68c23.67-20.14,45.53-42.75,67.7-64.85Z"/><path d="M871,343.72c-16.33.89-32.26,1.89-48.61.74-54.73-3.29-104.2-27.41-146.51-61.37-41.34-32.74-77.1-73.78-99.57-121.75a182.78,182.78,0,0,1-8.9-22.75c6.23,5.32,12.17,10.68,18.11,15.95,4.45,4,13.25,11.73,17.72,15.64,37.48,32.92,76,64.36,116.41,93.17a527.52,527.52,0,0,0,66.24,41.29c21.07,11.2,46.33,21.35,68.66,30.84A138.78,138.78,0,0,1,871,343.72Z"/><path d="M296.25,739.42c126.23-47,303.76-20.88,417.6,48.89,12.67,7.79,25.17,16.22,36.54,25.89-19.2-4.61-38-9.61-57-14.25-62.6-15.54-125.47-28.71-189.13-38.61-69.08-10.76-138-16.69-208-21.92Z"/><path d="M168.07,375.75c38.29,30.17,64.8,73.07,82.75,117.92,24.66,64,32.27,136,15,202.83a192,192,0,0,1-12.27,34.22c-4-33.75-7.7-67.49-13.08-100.85-5.23-32.29-11.92-64.62-19.94-96.31-13.74-54-32.42-105.52-52.43-157.81Z"/><path d="M788.27,801.44c-21.44-70.37-16.41-148.23-.7-219.28,14.08-62.44,34-124.39,67-179.62,4.9-7.88,10.06-15.75,16.39-22.59-2.24,9-3.89,17.9-5.65,26.8-14.36,78.94-31,157.9-47.87,236.24-11,52.25-19.62,105.74-29.22,158.45Z"/></svg>