<svg xmlns="http://www.w3.org/2000/svg" viewBox="0 0 1920 1080"><line x1="1595.44" y1="556.72" x2="1589.29" y2="570.4" style="fill:none;stroke:#d1d1d1;stroke-miterlimit:10;stroke-width:8px"/><line x1="1577.73" y1="596.1" x2="1444.88" y2="891.72" style="fill:none;stroke:#d1d1d1;stroke-miterlimit:10;stroke-width:8px;stroke-dasharray:28.182594299316406,28.182594299316406"/><line x1="1439.1" y1="904.57" x2="1432.95" y2="918.25" style="fill:none;stroke:#d1d1d1;stroke-miterlimit:10;stroke-width:8px"/><line x1="233.45" y1="218.98" x2="248.01" y2="222.59" style="fill:none;stroke:#d1d1d1;stroke-miterlimit:10;stroke-width:8px"/><line x1="277.63" y1="229.94" x2="1566.07" y2="549.43" style="fill:none;stroke:#d1d1d1;stroke-miterlimit:10;stroke-width:8px;stroke-dasharray:30.51625633239746,30.51625633239746"/><line x1="1580.88" y1="553.11" x2="1595.44" y2="556.72" style="fill:none;stroke:#d1d1d1;stroke-miterlimit:10;stroke-width:8px"/><line x1="519.79" y1="668.84" x2="515.95" y2="654.34" style="fill:none;stroke:#d1d1d1;stroke-miterlimit:10;stroke-width:8px"/><line x1="508.27" y1="625.38" x2="343.25" y2="2.68" style="fill:none;stroke:#d1d1d1;stroke-miterlimit:10;stroke-width:8px;stroke-dasharray:29.962324142456055,29.962324142456055"/><line x1="454.93" y1="950.68" x2="450.59" y2="936.33" style="fill:none;stroke:#d1d1d1;stroke-miterlimit:10;stroke-width:8px"/><line x1="442.07" y1="908.21" x2="242.06" y2="247.4" style="fill:none;stroke:#d1d1d1;stroke-miterlimit:10;stroke-width:8px;stroke-dasharray:29.379499435424805,29.379499435424805"/><line x1="237.8" y1="233.34" x2="233.45" y2="218.98" style="fill:none;stroke:#d1d1d1;stroke-miterlimit:10;stroke-width:8px"/><line x1="233.11" y1="218.98" x2="248.08" y2="218.01" style="fill:none;stroke:#d1d1d1;stroke-miterlimit:10;stroke-width:8px"/><line x1="277.69" y1="216.08" x2="1565.66" y2="132.26" style="fill:none;stroke:#d1d1d1;stroke-miterlimit:10;stroke-width:8px;stroke-dasharray:29.671297073364258,29.671297073364258"/><line x1="1580.47" y1="131.29" x2="1595.44" y2="130.32" style="fill:none;stroke:#d1d1d1;stroke-miterlimit:10;stroke-width:8px"/><line x1="519.79" y1="668.83" x2="534.76" y2="669.78" style="fill:none;stroke:#d1d1d1;stroke-miterlimit:10;stroke-width:8px"/><line x1="565.03" y1="671.68" x2="1700.22" y2="743.18" style="fill:none;stroke:#d1d1d1;stroke-miterlimit:10;stroke-width:8px;stroke-dasharray:30.331632614135742,30.331632614135742"/><line x1="1715.35" y1="744.13" x2="1730.32" y2="745.07" style="fill:none;stroke:#d1d1d1;stroke-miterlimit:10;stroke-width:8px"/><line x1="1432.95" y1="918.25" x2="1445.91" y2="910.71" style="fill:none;stroke:#d1d1d1;stroke-miterlimit:10;stroke-width:8px"/><line x1="1470.59" y1="896.33" x2="1705.02" y2="759.81" style="fill:none;stroke:#d1d1d1;stroke-miterlimit:10;stroke-width:8px;stroke-dasharray:28.556806564331055,28.556806564331055"/><line x1="1717.36" y1="752.62" x2="1730.32" y2="745.07" style="fill:none;stroke:#d1d1d1;stroke-miterlimit:10;stroke-width:8px"/><line x1="1730.32" y1="745.07" x2="1727.11" y2="730.42" style="fill:none;stroke:#d1d1d1;stroke-miterlimit:10;stroke-width:8px"/><line x1="1720.99" y1="702.54" x2="1601.71" y2="158.91" style="fill:none;stroke:#d1d1d1;stroke-miterlimit:10;stroke-width:8px;stroke-dasharray:28.54184913635254,28.54184913635254"/><line x1="1598.65" y1="144.97" x2="1595.44" y2="130.32" style="fill:none;stroke:#d1d1d1;stroke-miterlimit:10;stroke-width:8px"/><line x1="1730.32" y1="745.07" x2="1742.36" y2="754.03" style="fill:none;stroke:#d1d1d1;stroke-miterlimit:10;stroke-width:8px"/><line x1="1765.29" y1="771.1" x2="2120.8" y2="1035.65" style="fill:none;stroke:#d1d1d1;stroke-miterlimit:10;stroke-width:8px;stroke-dasharray:28.589696884155273,28.589696884155273"/><line x1="1242.84" y1="1221.56" x2="1708.76" y2="766.15" style="fill:none;stroke:#d1d1d1;stroke-miterlimit:10;stroke-width:8px;stroke-dasharray:30.303558349609375,30.303558349609375"/><line x1="1719.6" y1="755.56" x2="1730.32" y2="745.07" style="fill:none;stroke:#d1d1d1;stroke-miterlimit:10;stroke-width:8px"/><line x1="1298.06" y1="650.9" x2="1305.5" y2="637.87" style="fill:none;stroke:#d1d1d1;stroke-miterlimit:10;stroke-width:8px"/><line x1="1320.37" y1="611.84" x2="1580.56" y2="156.36" style="fill:none;stroke:#d1d1d1;stroke-miterlimit:10;stroke-width:8px;stroke-dasharray:29.97494125366211,29.97494125366211"/><line x1="1588" y1="143.34" x2="1595.44" y2="130.32" style="fill:none;stroke:#d1d1d1;stroke-miterlimit:10;stroke-width:8px"/><line x1="1432.95" y1="918.25" x2="1426.19" y2="904.86" style="fill:none;stroke:#d1d1d1;stroke-miterlimit:10;stroke-width:8px"/><line x1="1412.71" y1="878.13" x2="1311.56" y2="677.65" style="fill:none;stroke:#d1d1d1;stroke-miterlimit:10;stroke-width:8px;stroke-dasharray:29.939891815185547,29.939891815185547"/><line x1="1304.82" y1="664.29" x2="1298.06" y2="650.9" style="fill:none;stroke:#d1d1d1;stroke-miterlimit:10;stroke-width:8px"/><line x1="1595.44" y1="556.72" x2="1610.43" y2="556.9" style="fill:none;stroke:#d1d1d1;stroke-miterlimit:10;stroke-width:8px"/><line x1="1639.21" y1="557.27" x2="2085.24" y2="562.9" style="fill:none;stroke:#d1d1d1;stroke-miterlimit:10;stroke-width:8px;stroke-dasharray:28.77861213684082,28.77861213684082"/><line x1="519.79" y1="668.83" x2="534.78" y2="668.49" style="fill:none;stroke:#d1d1d1;stroke-miterlimit:10;stroke-width:8px"/><line x1="564.72" y1="667.8" x2="1268.1" y2="651.59" style="fill:none;stroke:#d1d1d1;stroke-miterlimit:10;stroke-width:8px;stroke-dasharray:29.939271926879883,29.939271926879883"/><line x1="1283.07" y1="651.24" x2="1298.06" y2="650.9" style="fill:none;stroke:#d1d1d1;stroke-miterlimit:10;stroke-width:8px"/><line x1="1990.7" y1="101.32" x2="1626.24" y2="128.06" style="fill:none;stroke:#d1d1d1;stroke-miterlimit:10;stroke-width:8px;stroke-dasharray:31.777515411376953,31.777515411376953"/><line x1="1610.4" y1="129.22" x2="1595.44" y2="130.32" style="fill:none;stroke:#d1d1d1;stroke-miterlimit:10;stroke-width:8px"/><line x1="519.79" y1="665.04" x2="529.13" y2="676.77" style="fill:none;stroke:#d1d1d1;stroke-miterlimit:10;stroke-width:8px"/><line x1="547.44" y1="699.76" x2="1014.27" y2="1285.89" style="fill:none;stroke:#d1d1d1;stroke-miterlimit:10;stroke-width:8px;stroke-dasharray:29.38524627685547,29.38524627685547"/><line x1="454.93" y1="950.68" x2="458.25" y2="936.06" style="fill:none;stroke:#d1d1d1;stroke-miterlimit:10;stroke-width:8px"/><line x1="464.72" y1="907.57" x2="513.23" y2="693.91" style="fill:none;stroke:#d1d1d1;stroke-miterlimit:10;stroke-width:8px;stroke-dasharray:29.212656021118164,29.212656021118164"/><line x1="516.47" y1="679.67" x2="519.79" y2="665.04" style="fill:none;stroke:#d1d1d1;stroke-miterlimit:10;stroke-width:8px"/><line x1="454.93" y1="950.68" x2="460.41" y2="964.65" style="fill:none;stroke:#d1d1d1;stroke-miterlimit:10;stroke-width:8px"/><line x1="470.93" y1="991.43" x2="633.93" y2="1406.64" style="fill:none;stroke:#d1d1d1;stroke-miterlimit:10;stroke-width:8px;stroke-dasharray:28.778039932250977,28.778039932250977"/><line x1="454.93" y1="950.68" x2="440.4" y2="946.97" style="fill:none;stroke:#d1d1d1;stroke-miterlimit:10;stroke-width:8px"/><line x1="412.17" y1="939.77" x2="-194.65" y2="784.82" style="fill:none;stroke:#d1d1d1;stroke-miterlimit:10;stroke-width:8px;stroke-dasharray:29.130075454711914,29.130075454711914"/><line x1="454.93" y1="950.68" x2="440.91" y2="956" style="fill:none;stroke:#d1d1d1;stroke-miterlimit:10;stroke-width:8px"/><line x1="412.74" y1="966.67" x2="32.5" y2="1110.79" style="fill:none;stroke:#d1d1d1;stroke-miterlimit:10;stroke-width:8px;stroke-dasharray:30.121341705322266,30.121341705322266"/><line x1="519.79" y1="668.83" x2="1595.44" y2="556.72" style="fill:#fff;stroke:#b2b2b2;stroke-miterlimit:10;stroke-width:8px"/><line x1="519.79" y1="668.83" x2="-67.37" y2="955.86" style="fill:none;stroke:#b2b2b2;stroke-miterlimit:10;stroke-width:8px"/><line x1="1595.44" y1="556.72" x2="2059.43" y2="197.59" style="fill:none;stroke:#b2b2b2;stroke-miterlimit:10;stroke-width:8px"/><line x1="1432.95" y1="918.25" x2="519.79" y2="668.83" style="fill:#fff;stroke:#b2b2b2;stroke-miterlimit:10;stroke-width:8px"/><line x1="1434.33" y1="918.25" x2="454.93" y2="950.68" style="fill:none;stroke:#b2b2b2;stroke-miterlimit:10;stroke-width:8px"/><line x1="1595.44" y1="556.72" x2="1595.44" y2="130.32" style="fill:#fff;stroke:#b2b2b2;stroke-miterlimit:10;stroke-width:8px"/><line x1="233.45" y1="218.98" x2="519.79" y2="668.83" style="fill:none;stroke:#b2b2b2;stroke-miterlimit:10;stroke-width:8px"/><line x1="1595.44" y1="556.72" x2="1730.32" y2="745.07" style="fill:#fff;stroke:#b2b2b2;stroke-miterlimit:10;stroke-width:8px"/><line x1="1424.67" y1="918.94" x2="2074.27" y2="1301.53" style="fill:none;stroke:#b2b2b2;stroke-miterlimit:10;stroke-width:8px"/><line x1="233.11" y1="218.98" x2="-45.29" y2="701.26" style="fill:none;stroke:#b2b2b2;stroke-miterlimit:10;stroke-width:8px"/><line x1="826.82" y1="-126" x2="233.45" y2="218.98" style="fill:none;stroke:#b2b2b2;stroke-miterlimit:10;stroke-width:8px"/><line x1="1595.44" y1="130.32" x2="999" y2="-11" style="fill:none;stroke:#b2b2b2;stroke-miterlimit:10;stroke-width:8px"/><circle cx="519.79" cy="668.83" r="32.43" style="fill:#fff;stroke:#777;stroke-miterlimit:10;stroke-width:8px"/><circle cx="1595.44" cy="556.72" r="32.43" style="fill:#fff;stroke:#777;stroke-miterlimit:10;stroke-width:8px"/><circle cx="1432.95" cy="918.25" r="32.43" style="fill:#fff;stroke:#777;stroke-miterlimit:10;stroke-width:8px"/><circle cx="233.45" cy="218.98" r="32.43" style="fill:#fff;stroke:#777;stroke-miterlimit:10;stroke-width:8px"/><circle cx="454.93" cy="950.68" r="32.43" style="fill:#fff;stroke:#777;stroke-miterlimit:10;stroke-width:8px"/><circle cx="1595.44" cy="130.32" r="32.43" style="fill:#fff;stroke:#777;stroke-miterlimit:10;stroke-width:8px"/><circle cx="1730.32" cy="745.07" r="32.43" style="fill:#fff;stroke:#777;stroke-miterlimit:10;stroke-width:8px"/><circle cx="1298.06" cy="650.9" r="32.43" style="fill:#fff;stroke:#777;stroke-miterlimit:10;stroke-width:8px"/></svg>